<?xml version="1.0" standalone="no"?>
<!DOCTYPE svg PUBLIC "-//W3C//DTD SVG 20010904//EN"
 "http://www.w3.org/TR/2001/REC-SVG-20010904/DTD/svg10.dtd">
<svg version="1.0" xmlns="http://www.w3.org/2000/svg"
 width="300.000000pt" height="252.000000pt" viewBox="0 0 300.000000 252.000000"
 preserveAspectRatio="xMidYMid meet">
<metadata>
Created by potrace 1.10, written by Peter Selinger 2001-2011
</metadata>
<g transform="translate(0.000000,252.000000) scale(0.100000,-0.100000)"
fill="#000000" stroke="none">
<path d="M5 1255 c0 -693 1 -975 2 -627 2 349 2 916 0 1260 -1 345 -2 60 -2
-633z"/>
<path d="M1301 2010 c-88 -18 -164 -80 -203 -165 -30 -67 -31 -188 -1 -255 24
-53 96 -122 149 -145 147 -61 317 2 386 143 32 66 32 198 0 259 -66 126 -196
190 -331 163z m169 -44 c31 -20 50 -44 73 -94 28 -60 32 -77 32 -157 0 -80 -3
-97 -30 -150 -41 -82 -89 -118 -163 -123 -125 -9 -209 80 -228 242 -14 116 44
250 126 294 60 31 131 27 190 -12z"/>
<path d="M527 2004 c-3 -3 -33 -6 -66 -6 -34 0 -61 -4 -61 -9 0 -5 11 -9 23
-9 13 0 31 -8 40 -18 15 -16 17 -49 17 -259 0 -257 1 -252 -53 -269 -19 -6 11
-9 98 -9 103 0 119 2 92 11 -52 17 -57 39 -57 246 l0 186 31 27 c78 65 179 91
237 61 18 -9 44 -35 60 -58 l27 -42 3 -660 c1 -513 -1 -666 -10 -685 -7 -13
-28 -29 -45 -35 -25 -9 23 -11 212 -11 156 0 235 3 218 9 -55 17 -53 -2 -53
443 0 392 -1 415 -17 408 -10 -5 -48 -10 -85 -13 -70 -4 -81 -15 -28 -25 20
-5 34 -15 40 -32 6 -16 10 -172 10 -380 0 -332 -1 -354 -19 -376 -15 -19 -29
-24 -65 -24 -87 0 -80 -56 -86 728 -4 498 -8 698 -17 712 -68 119 -262 127
-367 16 -17 -17 -34 -31 -39 -31 -6 0 -7 23 -4 55 5 48 3 55 -12 55 -10 0 -20
-3 -24 -6z"/>
<path d="M650 1314 c-73 -32 -108 -91 -117 -195 -5 -63 -8 -69 -26 -67 -11 2
-22 -3 -25 -10 -3 -10 4 -13 23 -10 l26 3 -1 -257 c0 -142 -3 -264 -6 -272 -3
-8 -23 -21 -45 -28 -36 -12 -29 -13 92 -13 93 -1 123 2 103 8 -66 21 -64 14
-64 301 l0 262 70 -4 c61 -4 70 -2 70 13 0 15 -8 16 -72 10 l-71 -7 5 79 c9
127 56 196 123 179 35 -9 68 -82 63 -137 -2 -21 -1 -39 2 -39 4 0 17 25 29 55
l23 55 -21 29 c-22 30 -85 61 -124 61 -12 -1 -38 -8 -57 -16z"/>
<path d="M1477 1273 c-2 -4 -8 -26 -11 -48 -15 -84 -82 -165 -137 -165 -19 0
-29 -5 -29 -15 0 -11 11 -15 38 -15 67 0 69 -7 74 -250 6 -271 17 -305 106
-317 47 -6 111 20 164 66 l36 32 26 -26 c40 -40 113 -68 192 -73 95 -6 160 23
253 113 37 36 71 65 75 65 7 0 0 -96 -10 -131 -3 -9 -21 -23 -41 -30 -33 -13
-28 -14 90 -14 101 0 120 2 96 10 -56 19 -59 31 -59 228 l0 179 38 38 c44 44
98 63 144 49 17 -5 35 -14 39 -21 14 -22 19 -3 12 51 l-6 53 -54 -4 c-46 -4
-60 -10 -93 -43 -21 -21 -44 -51 -51 -66 -21 -51 -32 -33 -27 42 l5 70 -41 -8
c-22 -4 -60 -8 -83 -8 -24 0 -43 -3 -43 -7 0 -5 11 -8 23 -8 49 0 56 -22 58
-192 l2 -157 -77 -71 c-119 -110 -219 -144 -309 -106 -74 31 -131 126 -138
231 l-4 50 82 -4 c46 -1 144 0 219 4 l136 7 -7 52 c-9 67 -51 145 -94 173 -19
13 -57 30 -85 38 -121 36 -265 -45 -311 -174 -24 -69 -20 -186 10 -248 l24
-53 -44 -30 c-55 -38 -93 -53 -121 -46 -42 11 -49 54 -49 305 l0 234 50 1 c28
1 50 6 50 11 0 6 -22 10 -50 10 l-50 0 0 106 c0 98 -6 133 -18 112z m-20 -219
c9 -23 -11 -38 -26 -20 -13 16 -7 36 10 36 5 0 12 -7 16 -16z m546 -39 c31
-20 63 -83 72 -142 5 -34 3 -45 -14 -62 -19 -19 -33 -21 -171 -21 l-150 0 0
25 c0 34 36 128 62 160 47 60 142 79 201 40z"/>
<path d="M2104 1145 c-34 -14 -84 -69 -84 -91 0 -12 6 -11 26 5 15 12 38 21
51 21 37 0 63 18 63 44 0 30 -18 37 -56 21z"/>
<path d="M2532 538 c-17 -17 -15 -53 3 -68 20 -17 62 -5 70 20 14 44 -41 80
-73 48z"/>
</g>
</svg>
