<?xml version="1.0" standalone="no"?>
<!DOCTYPE svg PUBLIC "-//W3C//DTD SVG 20010904//EN"
 "http://www.w3.org/TR/2001/REC-SVG-20010904/DTD/svg10.dtd">
<svg version="1.0" xmlns="http://www.w3.org/2000/svg"
 width="300.000000pt" height="256.000000pt" viewBox="0 0 300.000000 256.000000"
 preserveAspectRatio="xMidYMid meet">
<metadata>
Created by potrace 1.10, written by Peter Selinger 2001-2011
</metadata>
<g transform="translate(0.000000,256.000000) scale(0.100000,-0.100000)"
fill="#000000" stroke="none">
<path d="M1280 2238 c-14 -5 -61 -13 -105 -17 l-80 -7 42 -12 c73 -21 74 -28
71 -363 l-3 -291 -24 -20 c-14 -10 -37 -22 -53 -25 -15 -3 -28 -9 -28 -13 0
-4 24 -3 53 2 53 10 218 5 250 -7 10 -4 17 -3 17 4 0 6 -9 11 -20 11 -29 0
-76 26 -84 45 -3 9 -6 131 -6 270 l0 253 48 35 c26 19 61 42 79 51 44 22 140
34 186 23 47 -11 110 -81 126 -139 9 -32 11 -264 9 -881 l-3 -839 -24 -19
c-13 -10 -36 -19 -52 -19 -16 0 -29 -3 -29 -7 0 -5 72 -8 160 -8 87 0 156 3
152 7 -4 3 -20 8 -36 10 -18 2 -37 14 -50 31 -21 28 -21 32 -23 875 -1 466 -4
864 -8 885 -7 49 -65 113 -130 143 -77 36 -179 34 -254 -6 -31 -17 -76 -48
-100 -70 -24 -22 -45 -40 -47 -40 -2 0 -4 33 -6 74 l-3 73 -25 -9z m-17 -110
c6 -47 3 -68 -7 -57 -7 8 -13 109 -6 109 4 0 10 -23 13 -52z"/>
<path d="M1356 1425 c-92 -33 -145 -120 -154 -252 l-5 -83 -28 0 c-19 0 -29
-5 -29 -15 0 -11 8 -13 30 -8 l30 6 0 -372 0 -372 -25 -24 c-13 -14 -35 -25
-49 -25 -14 0 -27 -3 -29 -7 -3 -5 66 -8 154 -8 87 0 159 3 159 8 0 4 -13 7
-29 7 -16 0 -39 9 -52 19 l-24 19 -3 377 -3 376 88 -2 c58 -1 88 2 91 10 3 8
-24 11 -89 11 l-92 0 6 88 c7 105 29 172 69 212 36 36 74 39 112 9 36 -29 48
-59 55 -148 l6 -74 32 79 33 79 -33 33 c-62 66 -140 86 -221 57z m-95 -362
c-13 -23 -24 2 -16 35 l7 27 9 -23 c5 -14 5 -30 0 -39z"/>
</g>
</svg>
