<?xml version="1.0" standalone="no"?>
<!DOCTYPE svg PUBLIC "-//W3C//DTD SVG 20010904//EN"
 "http://www.w3.org/TR/2001/REC-SVG-20010904/DTD/svg10.dtd">
<svg version="1.0" xmlns="http://www.w3.org/2000/svg"
 width="300.000000pt" height="256.000000pt" viewBox="0 0 300.000000 256.000000"
 preserveAspectRatio="xMidYMid meet">
<metadata>
Created by potrace 1.10, written by Peter Selinger 2001-2011
</metadata>
<g transform="translate(0.000000,256.000000) scale(0.100000,-0.100000)"
fill="#000000" stroke="none">
<path d="M944 1820 c-27 -11 -72 -65 -80 -96 -4 -14 -4 -39 -1 -57 5 -31 98
-212 138 -269 l20 -28 -139 0 c-142 0 -162 -5 -162 -41 0 -26 20 -29 183 -29
l152 -1 160 -296 c88 -163 170 -302 181 -310 66 -43 143 -34 191 20 15 19 96
158 178 310 l150 277 161 0 c135 0 164 3 175 16 9 11 10 20 2 32 -9 14 -33 17
-157 20 l-146 3 23 37 c13 20 50 86 81 147 49 93 57 116 53 148 -7 48 -29 83
-70 107 -31 19 -54 20 -552 19 -286 0 -529 -4 -541 -9z m1073 -72 c42 -46 39
-58 -49 -222 l-83 -155 -400 -1 -400 0 -75 137 c-41 75 -79 144 -84 154 -12
24 0 64 26 89 21 20 33 20 533 20 l512 0 20 -22z m-185 -475 c-11 -16 -77
-134 -147 -263 -70 -129 -136 -245 -148 -257 -25 -28 -79 -31 -105 -5 -10 10
-60 97 -112 193 -51 96 -117 216 -146 267 l-52 92 365 0 364 0 -19 -27z"/>
<path d="M1421 552 c-85 -47 -93 -160 -15 -221 40 -32 123 -29 163 5 119 100
-12 292 -148 216z m124 -57 c59 -58 0 -161 -80 -141 -98 25 -80 166 20 166 25
0 44 -8 60 -25z"/>
</g>
</svg>
